# xmcd
#
# Track frame offsets:
#	150
#	16713
#	38938
#	58981
#	77969
#	99281
#	116981
#	135922
#	155153
#	174776
#	188434
#	200236
#	217359
#	239293
#	250541
#
# Disc length: 3505 seconds
#
# Revision: 0
# Processed by: cddbd v1.5.1PL0 Copyright (c) Steve Scherf et al.
# Submitted via: dBpowerAMP V4.0
#
DISCID=cd0daf0f
DTITLE=VICTOR HEREDIA - ORIG - NOS VAMOS PONIENDO VIEJOS
DYEAR=1900
DGENRE=Folklore
TTITLE0=LOS EJES DE MI CARRETA
TTITLE1=NOS VAMOS PONIENDO VIEJOS
TTITLE2=CUANDO TENGA LA TIERRA
TTITLE3=LA GUITARRA
TTITLE4=EL VIEJO MATIAS
TTITLE5=TODAVIA CANTAMOS
TTITLE6=INFORME DE LA SITUACION
TTITLE7=AÑOS
TTITLE8=AQUELLOS SOLDADITOS DE PLOMO
TTITLE9=CUANDO YO DIGO MUJER
TTITLE10=A TAN AVANZADA EDAD
TTITLE11=UN DIA DE GRACIAS
TTITLE12=RAZON DE VIVIR
TTITLE13=BEBE DE MI CANTARO
TTITLE14=SON LOS ARTISTAS, EQUILIBRISTAS
EXTD=MUSICA ARGENTINA
EXTT0=
EXTT1=
EXTT2=
EXTT3=
EXTT4=
EXTT5=
EXTT6=
EXTT7=
EXTT8=
EXTT9=
EXTT10=
EXTT11=
EXTT12=
EXTT13=
EXTT14=
PLAYORDER=
